<?xml version="1.0" encoding="UTF-8"?>
<svg xmlns="http://www.w3.org/2000/svg" viewBox="0 0 1200 760" font-family="system-ui,-apple-system,sans-serif">
  <defs>
    <linearGradient id="bg" x1="0" y1="0" x2="0" y2="1">
      <stop offset="0" stop-color="#0e1726"/>
      <stop offset="1" stop-color="#11203a"/>
    </linearGradient>
    <filter id="sh">
      <feDropShadow dx="0" dy="3" stdDeviation="6" flood-color="#000" flood-opacity="0.35"/>
    </filter>
    <marker id="arrow" viewBox="0 0 10 10" refX="10" refY="5" markerWidth="8" markerHeight="8" orient="auto-start-reverse">
      <path d="M0 0 L10 5 L0 10 z" fill="#7fb1ff"/>
    </marker>
  </defs>
  <rect width="1200" height="760" fill="url(#bg)"/>
  <text x="40" y="50" font-size="22" font-weight="700" fill="#e6e9ef">ACH Pipeline · NACHA file generation → M&amp;T Bank</text>
  <text x="40" y="74" font-size="13" fill="#8a93a4">old.etadventures.com · cron-driven · runs nightly</text>

  <!-- stage cards -->
  <g filter="url(#sh)">
    <rect x="40" y="120" width="240" height="140" rx="8" fill="#1a2640" stroke="#2c3e63"/>
    <text x="60" y="148" font-size="13" font-weight="700" fill="#7fb1ff" letter-spacing="1">1 · COLLECT</text>
    <text x="60" y="174" font-size="14" fill="#e6e9ef">Pull due ACH entries</text>
    <text x="60" y="194" font-size="12" fill="#8a93a4">tblAcctRec, recurring crons,</text>
    <text x="60" y="210" font-size="12" fill="#8a93a4">vendor payable batches</text>
    <text x="60" y="240" font-size="11" font-family="monospace" fill="#5db384">SELECT … WHERE due_date = CURDATE()</text>
  </g>

  <g filter="url(#sh)">
    <rect x="320" y="120" width="240" height="140" rx="8" fill="#1a2640" stroke="#2c3e63"/>
    <text x="340" y="148" font-size="13" font-weight="700" fill="#7fb1ff" letter-spacing="1">2 · BUILD</text>
    <text x="340" y="174" font-size="14" fill="#e6e9ef">Format NACHA batches</text>
    <text x="340" y="194" font-size="12" fill="#8a93a4">PPD/CCD entry headers,</text>
    <text x="340" y="210" font-size="12" fill="#8a93a4">control records, hash totals</text>
    <text x="340" y="240" font-size="11" font-family="monospace" fill="#5db384">nacha_files_to_upload/</text>
  </g>

  <g filter="url(#sh)">
    <rect x="600" y="120" width="240" height="140" rx="8" fill="#1a2640" stroke="#2c3e63"/>
    <text x="620" y="148" font-size="13" font-weight="700" fill="#7fb1ff" letter-spacing="1">3 · UPLOAD</text>
    <text x="620" y="174" font-size="14" fill="#e6e9ef">Ship to M&amp;T Bank</text>
    <text x="620" y="194" font-size="12" fill="#8a93a4">Authenticated submission,</text>
    <text x="620" y="210" font-size="12" fill="#8a93a4">retry on transport failure</text>
    <text x="620" y="240" font-size="11" font-family="monospace" fill="#5db384">SFTP · cron 02:00</text>
  </g>

  <g filter="url(#sh)">
    <rect x="880" y="120" width="280" height="140" rx="8" fill="#1a2640" stroke="#2c3e63"/>
    <text x="900" y="148" font-size="13" font-weight="700" fill="#7fb1ff" letter-spacing="1">4 · RECONCILE</text>
    <text x="900" y="174" font-size="14" fill="#e6e9ef">Process return files</text>
    <text x="900" y="194" font-size="12" fill="#8a93a4">R-codes back into the platform,</text>
    <text x="900" y="210" font-size="12" fill="#8a93a4">flag failed entries, alert ops</text>
    <text x="900" y="240" font-size="11" font-family="monospace" fill="#5db384">nacha_returnfiles/</text>
  </g>

  <!-- arrows -->
  <line x1="280" y1="190" x2="320" y2="190" stroke="#7fb1ff" stroke-width="2" marker-end="url(#arrow)"/>
  <line x1="560" y1="190" x2="600" y2="190" stroke="#7fb1ff" stroke-width="2" marker-end="url(#arrow)"/>
  <line x1="840" y1="190" x2="880" y2="190" stroke="#7fb1ff" stroke-width="2" marker-end="url(#arrow)"/>

  <!-- terminal-ish log -->
  <g filter="url(#sh)">
    <rect x="40" y="320" width="1120" height="280" rx="10" fill="#0b1424" stroke="#1f2c44"/>
    <circle cx="64" cy="346" r="6" fill="#ff5f56"/>
    <circle cx="84" cy="346" r="6" fill="#ffbd2e"/>
    <circle cx="104" cy="346" r="6" fill="#27c93f"/>
    <text x="130" y="350" font-size="12" fill="#7c8492" font-family="monospace">old.etadventures.com — daily-ach.log</text>
    <g font-family="monospace" font-size="13">
      <text x="60" y="392" fill="#8a93a4">02:00:01</text> <text x="160" y="392" fill="#7fb1ff">[ach.collect]</text>     <text x="320" y="392" fill="#e6e9ef">418 entries due · $214,309.42 total</text>
      <text x="60" y="416" fill="#8a93a4">02:00:04</text> <text x="160" y="416" fill="#7fb1ff">[nacha.build]</text>      <text x="320" y="416" fill="#e6e9ef">batch ETA-26-04-06-A · 412 PPD · 6 CCD</text>
      <text x="60" y="440" fill="#8a93a4">02:00:04</text> <text x="160" y="440" fill="#7fb1ff">[nacha.build]</text>      <text x="320" y="440" fill="#e6e9ef">control hash 8423917610 · totals balanced</text>
      <text x="60" y="464" fill="#8a93a4">02:00:05</text> <text x="160" y="464" fill="#7fb1ff">[nacha.upload]</text>     <text x="320" y="464" fill="#e6e9ef">sftp m&amp;t · 9.31 MB · accepted</text>
      <text x="60" y="488" fill="#8a93a4">02:00:06</text> <text x="160" y="488" fill="#5db384">[nacha.upload]</text>     <text x="320" y="488" fill="#5db384">OK · receipt #ETA-D-26-04-06-A</text>
      <text x="60" y="512" fill="#8a93a4">02:00:07</text> <text x="160" y="512" fill="#7fb1ff">[returns.fetch]</text>    <text x="320" y="512" fill="#e6e9ef">prior batch returns · 3 R01 · 1 R03</text>
      <text x="60" y="536" fill="#8a93a4">02:00:08</text> <text x="160" y="536" fill="#7fb1ff">[returns.apply]</text>    <text x="320" y="536" fill="#e6e9ef">flagged 4 entries · ops notified</text>
      <text x="60" y="560" fill="#8a93a4">02:00:08</text> <text x="160" y="560" fill="#5db384">[ach.done]</text>         <text x="320" y="560" fill="#5db384">cycle complete · runtime 7.2s</text>
    </g>
  </g>

  <text x="600" y="700" font-size="12" fill="#8a93a4" text-anchor="middle">Migrated MySQL 5.7 → 8.4 · PHP 5.6 → 8 · monitored by checkCronsRunningAsExpected.php</text>
</svg>
