<?xml version="1.0" encoding="UTF-8"?>
<svg xmlns="http://www.w3.org/2000/svg" viewBox="0 0 1200 760" font-family="system-ui,-apple-system,sans-serif">
  <defs>
    <linearGradient id="bg" x1="0" y1="0" x2="0" y2="1">
      <stop offset="0" stop-color="#fdfcf9"/>
      <stop offset="1" stop-color="#f1ede4"/>
    </linearGradient>
    <filter id="sh" x="-5%" y="-5%" width="110%" height="115%">
      <feDropShadow dx="0" dy="2" stdDeviation="4" flood-color="#1f2a44" flood-opacity="0.10"/>
    </filter>
  </defs>
  <rect width="1200" height="760" fill="url(#bg)"/>
  <rect width="1200" height="64" fill="#ffffff" stroke="#e7eaf0"/>
  <text x="40" y="40" font-size="20" font-weight="700" fill="#0a3a66">ETA Customer Portal</text>
  <text x="1116" y="40" font-size="14" fill="#7c8492" text-anchor="end">Hi, Mrs. Carter ▾</text>

  <g transform="translate(40,96)" filter="url(#sh)">
    <rect width="720" height="320" rx="8" fill="#ffffff" stroke="#e7eaf0"/>
    <text x="24" y="40" font-size="18" font-weight="700" fill="#0a3a66">Lincoln HS Spring Tour — Washington DC</text>
    <text x="24" y="64" font-size="13" fill="#7c8492">May 12–16, 2026 · 38 travelers · group leader: Sarah Carter</text>

    <g transform="translate(24,96)">
      <rect width="320" height="80" rx="6" fill="#f7f9fc" stroke="#dde3ee"/>
      <text x="16" y="26" font-size="12" font-weight="600" fill="#7c8492" letter-spacing="1">BALANCE DUE</text>
      <text x="16" y="58" font-size="26" font-weight="700" fill="#0a3a66">$4,182.00</text>
    </g>
    <g transform="translate(360,96)">
      <rect width="332" height="80" rx="6" fill="#f7f9fc" stroke="#dde3ee"/>
      <text x="16" y="26" font-size="12" font-weight="600" fill="#7c8492" letter-spacing="1">NEXT PAYMENT</text>
      <text x="16" y="58" font-size="26" font-weight="700" fill="#0a3a66">$697.00 · Apr 1</text>
    </g>

    <g transform="translate(24,196)">
      <rect width="668" height="100" rx="6" fill="#fbfdfe" stroke="#dde3ee"/>
      <text x="16" y="28" font-size="13" font-weight="600" fill="#0a3a66">Make a payment</text>
      <rect x="16" y="40" width="280" height="36" rx="4" fill="#ffffff" stroke="#cdd2db"/>
      <text x="28" y="62" font-size="13" fill="#7c8492">•••• •••• •••• 4242</text>
      <rect x="304" y="40" width="80" height="36" rx="4" fill="#ffffff" stroke="#cdd2db"/>
      <text x="320" y="62" font-size="13" fill="#7c8492">04/29</text>
      <rect x="392" y="40" width="60" height="36" rx="4" fill="#ffffff" stroke="#cdd2db"/>
      <text x="404" y="62" font-size="13" fill="#7c8492">CVV</text>
      <rect x="544" y="40" width="108" height="36" rx="4" fill="#9b4d24"/>
      <text x="598" y="63" font-size="13" font-weight="700" fill="#ffffff" text-anchor="middle">Pay $697</text>
    </g>
  </g>

  <g transform="translate(780,96)" filter="url(#sh)">
    <rect width="380" height="320" rx="8" fill="#ffffff" stroke="#e7eaf0"/>
    <text x="20" y="36" font-size="14" font-weight="700" fill="#0a3a66">Payment plan</text>
    <g font-size="12" fill="#0a3a66">
      <text x="20" y="78">Deposit · paid Jan 15</text>            <text x="360" y="78" text-anchor="end" fill="#2d8059">✓ $400.00</text>
      <text x="20" y="108">Installment 1 · paid Feb 1</text>       <text x="360" y="108" text-anchor="end" fill="#2d8059">✓ $697.00</text>
      <text x="20" y="138">Installment 2 · paid Mar 1</text>       <text x="360" y="138" text-anchor="end" fill="#2d8059">✓ $697.00</text>
      <text x="20" y="168" font-weight="700">Installment 3 · due Apr 1</text>  <text x="360" y="168" text-anchor="end" fill="#9b4d24" font-weight="700">$697.00</text>
      <text x="20" y="198" fill="#7c8492">Installment 4 · May 1</text>     <text x="360" y="198" text-anchor="end" fill="#7c8492">$697.00</text>
      <text x="20" y="228" fill="#7c8492">Installment 5 · Jun 1</text>     <text x="360" y="228" text-anchor="end" fill="#7c8492">$697.00</text>
      <text x="20" y="258" fill="#7c8492">Final · Jul 1</text>             <text x="360" y="258" text-anchor="end" fill="#7c8492">$697.00</text>
    </g>
    <text x="20" y="296" font-size="11" fill="#7c8492">Card on file: Visa ending 4242 · NMI gateway</text>
  </g>

  <g transform="translate(40,440)" filter="url(#sh)">
    <rect width="540" height="280" rx="8" fill="#ffffff" stroke="#e7eaf0"/>
    <text x="20" y="36" font-size="14" font-weight="700" fill="#0a3a66">Travelers (38)</text>
    <g font-size="12" fill="#0a3a66">
      <text x="20" y="68">Aiden Rivera · 11th grade</text>      <text x="520" y="68" text-anchor="end" fill="#2d8059">complete</text>
      <text x="20" y="92">Brooklyn Lee · 11th grade</text>      <text x="520" y="92" text-anchor="end" fill="#2d8059">complete</text>
      <text x="20" y="116">Cole Tanaka · 12th grade</text>      <text x="520" y="116" text-anchor="end" fill="#2d8059">complete</text>
      <text x="20" y="140">Daniela Souza · 12th grade</text>    <text x="520" y="140" text-anchor="end" fill="#c98a26">forms missing</text>
      <text x="20" y="164">Eli Forrester · 11th grade</text>    <text x="520" y="164" text-anchor="end" fill="#c98a26">forms missing</text>
      <text x="20" y="188">Fatima Kone · 12th grade</text>      <text x="520" y="188" text-anchor="end" fill="#2d8059">complete</text>
      <text x="20" y="212">Gabriel Park · 12th grade</text>     <text x="520" y="212" text-anchor="end" fill="#2d8059">complete</text>
      <text x="20" y="236">Hannah Ortiz · 11th grade</text>     <text x="520" y="236" text-anchor="end" fill="#2d8059">complete</text>
    </g>
  </g>

  <g transform="translate(600,440)" filter="url(#sh)">
    <rect width="560" height="280" rx="8" fill="#ffffff" stroke="#e7eaf0"/>
    <text x="20" y="36" font-size="14" font-weight="700" fill="#0a3a66">Trip messages</text>
    <g font-size="12" fill="#0a3a66">
      <rect x="20" y="56" width="520" height="48" rx="6" fill="#f4f6fa"/>
      <text x="32" y="74" font-weight="700">From: ETA Operations · Mar 18</text>
      <text x="32" y="92" fill="#5a6473">Final rooming list and dietary restrictions due Apr 1.</text>

      <rect x="20" y="116" width="520" height="48" rx="6" fill="#f4f6fa"/>
      <text x="32" y="134" font-weight="700">From: Conference Coordinator · Mar 21</text>
      <text x="32" y="152" fill="#5a6473">Group leader call scheduled for Apr 6 at 7pm ET.</text>

      <rect x="20" y="176" width="520" height="48" rx="6" fill="#f4f6fa"/>
      <text x="32" y="194" font-weight="700">From: ETA Billing · Mar 24</text>
      <text x="32" y="212" fill="#5a6473">Receipt for installment 2 attached.</text>
    </g>
  </g>
</svg>
